<svg width="68" height="35" viewBox="0 0 68 35" fill="none" xmlns="http://www.w3.org/2000/svg">
<g clip-path="url(#clip0_883_1589)">
<path fill-rule="evenodd" clip-rule="evenodd" d="M28.7537 16.7783C29.1599 16.6211 29.5085 16.3436 29.7526 15.9829C29.9968 15.6222 30.125 15.1955 30.12 14.76C30.12 12.9435 28.8314 12.043 27.0614 12.043H22.4192V21.9205H27.4651C29.0177 21.9205 30.5392 20.8337 30.5392 19.1724C30.5392 17.1975 28.7537 16.797 28.7537 16.7783ZM24.8412 14.0924H26.6422C26.7575 14.0852 26.8731 14.1009 26.9824 14.1385C27.0917 14.176 27.1924 14.2348 27.279 14.3114C27.3655 14.388 27.4361 14.4808 27.4867 14.5847C27.5372 14.6886 27.5668 14.8015 27.5738 14.9168C27.5738 14.952 27.5738 14.9877 27.5738 15.0239C27.5689 15.2667 27.4682 15.4978 27.2937 15.6668C27.1193 15.8357 26.8851 15.9289 26.6422 15.926H24.8257L24.8412 14.0924ZM26.6577 19.8524H24.8568V17.9117H26.6112C27.4961 17.9117 27.9153 18.2999 27.9153 18.8743C27.9153 19.5916 27.3875 19.8524 26.6577 19.8524Z" fill="black"/>
<path fill-rule="evenodd" clip-rule="evenodd" d="M35.8801 11.7949C33.0233 11.7949 31.3465 14.0772 31.3465 16.965C31.3465 19.8528 33.0233 22.1351 35.8801 22.1351C38.7368 22.1351 40.4136 19.8683 40.4136 16.965C40.4136 14.0617 38.7523 11.7949 35.8801 11.7949ZM35.8801 19.7752C34.4827 19.7752 33.7841 18.5176 33.7841 16.965C33.7841 15.4124 34.4827 14.1704 35.8801 14.1704C37.2774 14.1704 37.9916 15.428 37.9916 16.965C37.9916 18.5331 37.2774 19.7752 35.8801 19.7752Z" fill="black"/>
<path fill-rule="evenodd" clip-rule="evenodd" d="M45.6768 15.9247L45.3352 15.847C44.4968 15.6763 43.8292 15.4589 43.8292 14.8534C43.8292 14.2013 44.4658 13.9374 45.0247 13.9374C45.406 13.9431 45.7821 14.0273 46.1294 14.185C46.4767 14.3426 46.7877 14.5701 47.0431 14.8534L48.5801 13.3319C47.8815 12.5401 46.7481 11.7793 44.9781 11.7793C42.8977 11.7793 41.3141 12.9437 41.3141 14.8845C41.3141 16.6544 42.5872 17.5238 44.1397 17.8499L44.4813 17.9275C45.77 18.1914 46.2512 18.3933 46.2512 19.0143C46.2512 19.6043 45.7234 19.9924 44.916 19.9924C43.9534 19.9924 43.084 19.5732 42.4164 18.7193L40.8483 20.2719C41.7177 21.3121 42.8201 22.1195 44.9471 22.1195C46.7947 22.1195 48.7664 21.0637 48.7664 18.9056C48.7975 16.6544 47.0896 16.2197 45.6768 15.9247Z" fill="black"/>
<path fill-rule="evenodd" clip-rule="evenodd" d="M54.2936 19.7753C53.2068 19.7753 52.0734 18.8748 52.0734 16.903C52.0734 15.1486 53.1292 14.1705 54.2315 14.1705C55.1009 14.1705 55.6133 14.5741 56.017 15.2728L58.0043 13.9531C57.0106 12.4471 55.8307 11.8105 54.2005 11.8105C51.2195 11.8105 49.6048 14.1239 49.6048 16.9185C49.6048 19.8529 51.3903 22.1507 54.1694 22.1507C56.1257 22.1507 57.0572 21.4676 58.0664 20.0082L56.0635 18.6605C55.6599 19.3095 55.2252 19.7753 54.2936 19.7753Z" fill="black"/>
<path fill-rule="evenodd" clip-rule="evenodd" d="M64.6338 12.043V15.676H61.6373V12.043H59.0445V21.9174H61.6373V18.0204H64.6338V21.9174H67.2266V12.043H64.6338Z" fill="black"/>
<path d="M7.48343 9.52832C6.00335 9.52832 4.5565 9.96722 3.32586 10.7895C2.09522 11.6118 1.13605 12.7805 0.569645 14.148C0.00324245 15.5154 -0.144954 17.02 0.143795 18.4717C0.432545 19.9233 1.14527 21.2567 2.19185 22.3033C3.23842 23.3499 4.57184 24.0626 6.02348 24.3514C7.47512 24.6401 8.97979 24.4919 10.3472 23.9255C11.7146 23.3591 12.8834 22.4 13.7057 21.1693C14.528 19.9387 14.9668 18.4918 14.9668 17.0117C14.9668 15.027 14.1784 13.1236 12.775 11.7202C11.3716 10.3168 9.46815 9.52832 7.48343 9.52832ZM7.48343 23.7965C6.14153 23.7965 4.82976 23.3986 3.71401 22.6531C2.59827 21.9075 1.72865 20.8479 1.21512 19.6082C0.7016 18.3684 0.567239 17.0042 0.82903 15.6881C1.09082 14.372 1.73701 13.1631 2.68587 12.2142C3.63474 11.2653 4.84367 10.6191 6.15978 10.3573C7.4759 10.0956 8.84009 10.2299 10.0798 10.7434C11.3196 11.257 12.3792 12.1266 13.1248 13.2423C13.8703 14.3581 14.2682 15.6698 14.2682 17.0117C14.2678 18.811 13.5528 20.5365 12.2805 21.8088C11.0082 23.0811 9.28273 23.7961 7.48343 23.7965Z" fill="black"/>
<path d="M10.5731 12.3379H10.0607V14.8996H4.92167V12.3379H4.39379C3.62062 12.848 2.98609 13.5419 2.54705 14.3575C2.10802 15.1731 1.8782 16.0849 1.8782 17.0111C1.8782 17.9374 2.10802 18.8492 2.54705 19.6648C2.98609 20.4804 3.62062 21.1743 4.39379 21.6844H4.92167V19.1258H10.0607V21.6875H10.5731C11.3466 21.1777 11.9814 20.4838 12.4207 19.6682C12.86 18.8526 13.0899 17.9407 13.0899 17.0143C13.0899 16.0879 12.86 15.1759 12.4207 14.3603C11.9814 13.5447 11.3466 12.8508 10.5731 12.341V12.3379ZM4.20748 20.6783C3.72597 20.2505 3.33345 19.732 3.05234 19.1525C2.77122 18.5729 2.60702 17.9437 2.5691 17.3007C2.53118 16.6577 2.62029 16.0135 2.83135 15.4049C3.0424 14.7963 3.37127 14.2353 3.79916 13.7538C3.92741 13.6106 4.06374 13.4748 4.20748 13.3471V20.6783ZM10.0607 18.4116H4.92167V15.5983H10.0607V18.4116ZM10.7594 20.6628V19.1102V14.8996V13.3471C11.2397 13.7784 11.6303 14.3001 11.909 14.8825C12.1876 15.4648 12.3487 16.0963 12.3832 16.741C12.4176 17.3856 12.3247 18.0307 12.1098 18.6394C11.8948 19.2482 11.562 19.8086 11.1304 20.2886C11.013 20.4185 10.8892 20.5423 10.7594 20.6597V20.6628Z" fill="black"/>
</g>
<defs>
<clipPath id="clip0_883_1589">
<rect width="67.2266" height="15.06" fill="white" transform="translate(0 9.5)"/>
</clipPath>
</defs>
</svg>
